# xmcd
#
# Track frame offsets:
#	150
#	20474
#	37329
#	53466
#	73617
#	87796
#	109049
#	126450
#	142781
#	156659
#	173564
#	187316
#	204808
#	223971
#	241571
#
# Disc length: 3480 seconds
#
# Revision: 2
# Processed by: cddbd v1.4PL0 Copyright (c) Steve Scherf et al.
# Submitted via: audiograbber 1.82.02
#
DISCID=d30d960f
DTITLE=Various Artist - Лятна вълна 2003
DYEAR=2003
DGENRE=Pop
TTITLE0=Д_2 - 100 години (акустична версия)
TTITLE1=КариZма - Ще избягам ли от теб
TTITLE2=Ирра - Тайни
TTITLE3=Те - Има ли цветя
TTITLE4=Нети - Стой далеч от мен
TTITLE5=Хиподил - Скакауец
TTITLE6=Попкорн - Без теб
TTITLE7=Мария Илиева - Стерео стая
TTITLE8=Руши Виденлиев - Далеч от теб
TTITLE9=Д_2 - Аз и ти (на живо)
TTITLE10=Ирина Флорин - В трето лице
TTITLE11=Лора - Джунгла
TTITLE12=Атлас - Капка от любов
TTITLE13=Сантра и Спенс - Не ме обичаш вече
TTITLE14=Супергрупата на България - Ако някога...
EXTD=
EXTT0=
EXTT1=
EXTT2=
EXTT3=
EXTT4=
EXTT5=
EXTT6=
EXTT7=
EXTT8=
EXTT9=
EXTT10=
EXTT11=
EXTT12=
EXTT13=
EXTT14=
PLAYORDER=
